<svg width="390" height="245" viewBox="0 0 390 245" fill="none" xmlns="http://www.w3.org/2000/svg">
<g clip-path="url(#clip0)">
<path d="M335.432 9.03558H63.722C56.9885 9.03558 51.5299 14.4943 51.5299 21.2281V204.218C51.5299 210.952 56.9885 216.41 63.722 216.41H335.432C342.165 216.41 347.624 210.952 347.624 204.218V21.2281C347.624 14.4943 342.165 9.03558 335.432 9.03558Z" fill="#F2F2F2"/>
<path d="M302.1 52.8903H107.592C104.792 52.8903 102.522 55.1604 102.522 57.9607V64.8177C102.522 67.6181 104.792 69.8882 107.592 69.8882H302.1C304.9 69.8882 307.17 67.6181 307.17 64.8177V57.9607C307.17 55.1604 304.9 52.8903 302.1 52.8903Z" fill="white"/>
<path d="M344.61 0.196655H72.9006C66.1671 0.196655 60.7085 5.65542 60.7085 12.3891V195.379C60.7085 202.113 66.1671 207.571 72.9006 207.571H344.61C351.344 207.571 356.802 202.113 356.802 195.379V12.3891C356.802 5.65542 351.344 0.196655 344.61 0.196655Z" stroke="#3F3D56" stroke-miterlimit="10"/>
<path d="M60.8785 16.1747H356.972" stroke="#3F3D56" stroke-miterlimit="10"/>
<path d="M70.9069 13.6251C73.1599 13.6251 74.9862 11.7986 74.9862 9.54557C74.9862 7.29252 73.1599 5.46606 70.9069 5.46606C68.6539 5.46606 66.8275 7.29252 66.8275 9.54557C66.8275 11.7986 68.6539 13.6251 70.9069 13.6251Z" fill="#D77F3F"/>
<path d="M82.4651 13.795C84.7181 13.795 86.5445 11.9685 86.5445 9.71549C86.5445 7.46244 84.7181 5.63599 82.4651 5.63599C80.2121 5.63599 78.3857 7.46244 78.3857 9.71549C78.3857 11.9685 80.2121 13.795 82.4651 13.795Z" fill="#D77F3F"/>
<path d="M94.0233 13.965C96.2763 13.965 98.1026 12.1386 98.1026 9.88554C98.1026 7.63249 96.2763 5.80603 94.0233 5.80603C91.7703 5.80603 89.9439 7.63249 89.9439 9.88554C89.9439 12.1386 91.7703 13.965 94.0233 13.965Z" fill="#D77F3F"/>
<path d="M71.9267 12.2652C74.1797 12.2652 76.0061 10.4388 76.0061 8.18571C76.0061 5.93266 74.1797 4.1062 71.9267 4.1062C69.6737 4.1062 67.8474 5.93266 67.8474 8.18571C67.8474 10.4388 69.6737 12.2652 71.9267 12.2652Z" stroke="#3F3D56" stroke-miterlimit="10"/>
<path d="M83.4849 12.4352C85.7379 12.4352 87.5643 10.6087 87.5643 8.35569C87.5643 6.10264 85.7379 4.27618 83.4849 4.27618C81.232 4.27618 79.4056 6.10264 79.4056 8.35569C79.4056 10.6087 81.232 12.4352 83.4849 12.4352Z" stroke="#3F3D56" stroke-miterlimit="10"/>
<path d="M95.0431 12.6052C97.2961 12.6052 99.1225 10.7787 99.1225 8.52567C99.1225 6.27262 97.2961 4.44617 95.0431 4.44617C92.7901 4.44617 90.9637 6.27262 90.9637 8.52567C90.9637 10.7787 92.7901 12.6052 95.0431 12.6052Z" stroke="#3F3D56" stroke-miterlimit="10"/>
<path d="M305.839 49.4907H111.332C108.531 49.4907 106.261 51.7608 106.261 54.5611V61.4181C106.261 64.2185 108.531 66.4886 111.332 66.4886H305.839C308.639 66.4886 310.91 64.2185 310.91 61.4181V54.5611C310.91 51.7608 308.639 49.4907 305.839 49.4907Z" stroke="#3F3D56" stroke-miterlimit="10"/>
<path d="M298.716 58.2027C300.218 58.2027 301.435 56.9851 301.435 55.483C301.435 53.981 300.218 52.7634 298.716 52.7634C297.214 52.7634 295.996 53.981 295.996 55.483C295.996 56.9851 297.214 58.2027 298.716 58.2027Z" stroke="#3F3D56" stroke-miterlimit="10"/>
<path d="M300.723 57.5616L305.446 62.4526" stroke="#3F3D56" stroke-miterlimit="10"/>
<path d="M145.015 56.9697H114.42C112.73 56.9697 111.361 58.3396 111.361 60.0294V60.0294C111.361 61.7191 112.73 63.089 114.42 63.089H145.015C146.705 63.089 148.075 61.7191 148.075 60.0294C148.075 58.3396 146.705 56.9697 145.015 56.9697Z" fill="#D77F3F"/>
<path d="M115.44 55.27H146.035C147.725 55.27 149.095 56.6398 149.095 58.3296V58.3296C149.095 60.0194 147.725 61.3892 146.035 61.3892H115.44C113.75 61.3892 112.38 60.0194 112.38 58.3296V58.3296C112.38 56.6398 113.75 55.27 115.44 55.27Z" stroke="#3F3D56" stroke-miterlimit="10"/>
<path d="M131.757 93.3453H101.162C99.4725 93.3453 98.1027 94.7152 98.1027 96.405V96.405C98.1027 98.0948 99.4725 99.4646 101.162 99.4646H131.757C133.447 99.4646 134.817 98.0948 134.817 96.405C134.817 94.7152 133.447 93.3453 131.757 93.3453Z" fill="#D77F3F"/>
<path d="M131.757 112.723H101.162C99.4725 112.723 98.1027 114.093 98.1027 115.783C98.1027 117.472 99.4725 118.842 101.162 118.842H131.757C133.447 118.842 134.817 117.472 134.817 115.783C134.817 114.093 133.447 112.723 131.757 112.723Z" fill="white"/>
<path d="M131.757 132.101H101.162C99.4725 132.101 98.1027 133.47 98.1027 135.16C98.1027 136.85 99.4725 138.22 101.162 138.22H131.757C133.447 138.22 134.817 136.85 134.817 135.16C134.817 133.47 133.447 132.101 131.757 132.101Z" fill="white"/>
<path d="M131.757 151.478H101.162C99.4725 151.478 98.1027 152.848 98.1027 154.538C98.1027 156.228 99.4725 157.598 101.162 157.598H131.757C133.447 157.598 134.817 156.228 134.817 154.538C134.817 152.848 133.447 151.478 131.757 151.478Z" fill="white"/>
<path d="M131.757 170.856H101.162C99.4725 170.856 98.1027 172.226 98.1027 173.915C98.1027 175.605 99.4725 176.975 101.162 176.975H131.757C133.447 176.975 134.817 175.605 134.817 173.915C134.817 172.226 133.447 170.856 131.757 170.856Z" fill="white"/>
<path d="M102.862 91.3055H133.457C135.147 91.3055 136.517 92.6754 136.517 94.3652V94.3652C136.517 96.055 135.147 97.4248 133.457 97.4248H102.862C101.172 97.4248 99.8024 96.055 99.8024 94.3652V94.3652C99.8024 92.6754 101.172 91.3055 102.862 91.3055Z" stroke="#3F3D56" stroke-miterlimit="10"/>
<path d="M133.457 110.683H102.862C101.172 110.683 99.8024 112.053 99.8024 113.743C99.8024 115.433 101.172 116.802 102.862 116.802H133.457C135.147 116.802 136.517 115.433 136.517 113.743C136.517 112.053 135.147 110.683 133.457 110.683Z" stroke="#3F3D56" stroke-miterlimit="10"/>
<path d="M133.457 130.061H102.862C101.172 130.061 99.8024 131.431 99.8024 133.12C99.8024 134.81 101.172 136.18 102.862 136.18H133.457C135.147 136.18 136.517 134.81 136.517 133.12C136.517 131.431 135.147 130.061 133.457 130.061Z" stroke="#3F3D56" stroke-miterlimit="10"/>
<path d="M102.862 149.438H133.457C135.147 149.438 136.517 150.808 136.517 152.498V152.498C136.517 154.188 135.147 155.558 133.457 155.558H102.862C101.172 155.558 99.8024 154.188 99.8024 152.498V152.498C99.8024 150.808 101.172 149.438 102.862 149.438Z" stroke="#3F3D56" stroke-miterlimit="10"/>
<path d="M102.862 168.816H133.457C135.147 168.816 136.517 170.186 136.517 171.876V171.876C136.517 173.566 135.147 174.935 133.457 174.935H102.862C101.172 174.935 99.8024 173.566 99.8024 171.876V171.876C99.8024 170.186 101.172 168.816 102.862 168.816Z" stroke="#3F3D56" stroke-miterlimit="10"/>
<path d="M314.091 93.3453H298.21C297.338 93.3453 296.632 94.0519 296.632 94.9235V97.8865C296.632 98.758 297.338 99.4646 298.21 99.4646H314.091C314.962 99.4646 315.669 98.758 315.669 97.8865V94.9235C315.669 94.0519 314.962 93.3453 314.091 93.3453Z" fill="#57B894"/>
<path d="M314.091 112.723H298.21C297.338 112.723 296.632 113.43 296.632 114.301V117.264C296.632 118.136 297.338 118.842 298.21 118.842H314.091C314.962 118.842 315.669 118.136 315.669 117.264V114.301C315.669 113.43 314.962 112.723 314.091 112.723Z" fill="white"/>
<path d="M314.091 132.101H298.21C297.338 132.101 296.632 132.807 296.632 133.679V136.642C296.632 137.513 297.338 138.22 298.21 138.22H314.091C314.962 138.22 315.669 137.513 315.669 136.642V133.679C315.669 132.807 314.962 132.101 314.091 132.101Z" fill="white"/>
<path d="M314.091 151.478H298.21C297.338 151.478 296.632 152.185 296.632 153.056V156.019C296.632 156.891 297.338 157.598 298.21 157.598H314.091C314.962 157.598 315.669 156.891 315.669 156.019V153.056C315.669 152.185 314.962 151.478 314.091 151.478Z" fill="white"/>
<path d="M314.091 170.856H298.21C297.338 170.856 296.632 171.562 296.632 172.434V175.397C296.632 176.269 297.338 176.975 298.21 176.975H314.091C314.962 176.975 315.669 176.269 315.669 175.397V172.434C315.669 171.562 314.962 170.856 314.091 170.856Z" fill="white"/>
<path d="M315.791 91.3055H299.91C299.038 91.3055 298.332 92.0121 298.332 92.8837V95.8467C298.332 96.7183 299.038 97.4248 299.91 97.4248H315.791C316.662 97.4248 317.369 96.7183 317.369 95.8467V92.8837C317.369 92.0121 316.662 91.3055 315.791 91.3055Z" stroke="#3F3D56" stroke-miterlimit="10"/>
<path d="M315.791 110.683H299.91C299.038 110.683 298.332 111.39 298.332 112.261V115.224C298.332 116.096 299.038 116.802 299.91 116.802H315.791C316.662 116.802 317.369 116.096 317.369 115.224V112.261C317.369 111.39 316.662 110.683 315.791 110.683Z" stroke="#3F3D56" stroke-miterlimit="10"/>
<path d="M315.791 130.061H299.91C299.038 130.061 298.332 130.767 298.332 131.639V134.602C298.332 135.473 299.038 136.18 299.91 136.18H315.791C316.662 136.18 317.369 135.473 317.369 134.602V131.639C317.369 130.767 316.662 130.061 315.791 130.061Z" stroke="#3F3D56" stroke-miterlimit="10"/>
<path d="M315.791 149.438H299.91C299.038 149.438 298.332 150.145 298.332 151.017V153.98C298.332 154.851 299.038 155.558 299.91 155.558H315.791C316.662 155.558 317.369 154.851 317.369 153.98V151.017C317.369 150.145 316.662 149.438 315.791 149.438Z" stroke="#3F3D56" stroke-miterlimit="10"/>
<path d="M315.791 168.816H299.91C299.038 168.816 298.332 169.523 298.332 170.394V173.357C298.332 174.229 299.038 174.935 299.91 174.935H315.791C316.662 174.935 317.369 174.229 317.369 173.357V170.394C317.369 169.523 316.662 168.816 315.791 168.816Z" stroke="#3F3D56" stroke-miterlimit="10"/>
<path d="M79.6211 125.064H60.9402V149.568H79.6211V125.064Z" fill="#2F2E41"/>
<path d="M46.2017 230.178C46.2017 230.178 51.4178 230.178 52.9947 231.876C54.5717 233.574 53.9652 237.578 55.6634 238.184C57.3617 238.791 61.2434 243.643 57.8469 244.25C55.4766 244.673 50.7433 244.86 48.0994 244.934C46.941 244.966 45.8069 244.599 44.8871 243.894C44.2589 243.41 43.6044 242.962 42.9264 242.551C41.1069 241.459 42.9264 234.181 42.9264 234.181L46.2017 230.178Z" fill="#575A89"/>
<path opacity="0.1" d="M46.2017 230.178C46.2017 230.178 51.4178 230.178 52.9947 231.876C54.5717 233.574 53.9652 237.578 55.6634 238.184C57.3617 238.791 61.2434 243.643 57.8469 244.25C55.4766 244.673 50.7433 244.86 48.0994 244.934C46.941 244.966 45.8069 244.599 44.8871 243.894C44.2589 243.41 43.6044 242.962 42.9264 242.551C41.1069 241.459 42.9264 234.181 42.9264 234.181L46.2017 230.178Z" fill="black"/>
<path d="M66.3382 182.867C66.3382 184.202 65.2465 190.631 65.2465 190.631L53.9651 233.817C53.9651 233.817 45.7164 231.755 44.9886 231.876C44.8358 231.901 44.8806 231.194 45.0456 230.053C45.3913 227.663 46.2672 223.373 46.9792 219.923C47.553 217.143 48.0212 214.907 48.0212 214.65C48.0212 214.352 48.2868 209.343 48.5998 203.536C49.0486 195.18 49.5982 185.172 49.5982 185.172L47.7786 158.727L48.2638 148.294L51.1751 135.8L70.4626 141.016L71.3736 147.167L71.433 147.566C71.433 147.566 69.6114 175.704 68.6409 176.553C67.6705 177.403 66.3382 181.533 66.3382 182.867Z" fill="#3F3D56"/>
<path d="M42.8051 224.476C42.8051 224.476 35.5268 224.355 34.799 225.204C34.3022 225.784 31.5445 231.564 29.844 235.174C29.1484 236.627 29.0035 238.284 29.436 239.836C29.8686 241.388 30.8493 242.731 32.1963 243.615C33.5127 244.444 35.0736 244.797 36.6186 244.613C43.169 244.007 42.8051 239.882 42.8051 239.882L44.746 233.574L44.2608 225.325L42.8051 224.476Z" fill="#575A89"/>
<path opacity="0.1" d="M45.0457 230.053C45.3914 227.663 46.2672 223.373 46.9792 219.923C46.7003 224.016 45.6667 230.386 45.3526 230.178C45.2537 230.128 45.1511 230.086 45.0457 230.053Z" fill="black"/>
<path opacity="0.1" d="M54.0865 176.559C54.2078 177.287 52.8734 179.471 52.0243 182.139C51.1752 184.808 48.8704 201.549 48.8704 201.549C48.8704 201.549 48.7624 202.319 48.5999 203.536C49.0487 195.18 49.5982 185.172 49.5982 185.172L47.7786 158.727L48.2638 148.294L51.1752 135.8L70.4626 141.016L71.3736 147.167L52.7521 140.045C52.7521 140.045 52.3882 146.596 52.3882 147.93C52.3882 149.265 53.9652 175.831 54.0865 176.559Z" fill="black"/>
<path d="M33.586 122.941C33.586 122.941 27.7634 130.705 29.4616 139.196C31.1599 147.688 33.3434 169.038 34.9204 171.1C36.4973 173.163 34.9204 177.044 34.9204 177.044C34.9204 177.044 32.1303 213.68 32.373 214.893C32.6156 216.106 33.1008 221.807 33.7073 222.778C34.3138 223.748 33.9499 226.902 33.9499 226.902C33.9499 226.902 43.8969 229.935 44.2608 230.178C44.6247 230.42 45.9591 221.807 45.9591 218.168C45.9591 214.529 47.7787 201.549 47.7787 201.549C47.7787 201.549 50.0834 184.808 50.9326 182.139C51.7817 179.471 53.1161 177.287 52.9947 176.559C52.8734 175.831 51.2965 149.265 51.2965 147.93C51.2965 146.596 51.6604 140.045 51.6604 140.045L71.3815 147.587C71.3815 147.587 75.7684 127.13 73.5401 125.096C71.3117 123.062 33.586 122.941 33.586 122.941Z" fill="#3F3D56"/>
<path d="M50.1441 53.1277C58.4514 53.1277 65.1858 50.4935 65.1858 47.2442C65.1858 43.9948 58.4514 41.3607 50.1441 41.3607C41.8367 41.3607 35.1023 43.9948 35.1023 47.2442C35.1023 50.4935 41.8367 53.1277 50.1441 53.1277Z" fill="#2F2E41"/>
<path d="M41.457 28.7105C39.6243 30.2857 38.2893 32.3601 37.6148 34.6808C37.3609 35.5735 37.2422 36.615 37.8433 37.344C38.0704 37.5545 38.2684 37.7943 38.4321 38.0571C38.5305 38.445 38.5357 38.8507 38.447 39.2409C38.466 39.9895 38.6654 40.7225 39.0283 41.3775L41.0231 45.7755C41.2439 45.3919 41.2466 44.9208 41.4744 44.5408C41.9163 43.8034 42.9735 43.6961 43.8695 43.6751L46.6644 43.6096C47.4177 43.6471 48.1699 43.5172 48.867 43.2294C49.6797 42.8168 50.1682 42.0133 50.8211 41.3972C51.6654 40.6147 52.7499 40.1412 53.8978 40.0539C53.4981 40.6567 53.0107 41.1965 52.4517 41.6554C54.0217 41.4946 55.4752 40.7538 56.528 39.578L56.5323 40.8764C56.9971 41.0508 57.3954 40.3591 57.8918 40.415C58.481 40.4813 58.3713 41.3 58.3422 41.8604C58.3494 42.3741 58.5528 42.8656 58.9107 43.2343C59.2686 43.6029 59.7539 43.8208 60.2672 43.8433C60.8784 41.2301 61.4934 38.5676 61.2493 35.9013C61.0053 33.2349 59.7635 30.5149 57.3845 29.0651C56.4164 28.5046 55.3598 28.1131 54.2602 27.9074C52.0067 27.437 49.6742 27.4696 47.3667 27.5044C46.0455 27.4701 44.7251 27.5992 43.4356 27.8888C42.1647 28.2309 40.9483 28.936 40.3038 30.0268" fill="#3F3D56"/>
<path d="M43.6543 45.5459C43.6543 45.5459 43.0478 50.5195 42.1986 50.5195C41.3495 50.5195 45.8378 58.6472 45.8378 58.6472L57.9682 59.6177L65.2465 55.008L61.7287 49.0638C61.7287 49.0638 56.0273 48.0934 56.7552 44.818C57.483 41.5427 43.6543 45.5459 43.6543 45.5459Z" fill="#FBBEBE"/>
<path opacity="0.1" d="M43.6543 45.5459C43.6543 45.5459 43.0478 50.5195 42.1986 50.5195C41.3495 50.5195 45.8378 58.6472 45.8378 58.6472L57.9682 59.6177L65.2465 55.008L61.7287 49.0638C61.7287 49.0638 56.0273 48.0934 56.7552 44.818C57.483 41.5427 43.6543 45.5459 43.6543 45.5459Z" fill="black"/>
<path d="M50.2047 50.5195C56.0332 50.5195 60.7582 45.7944 60.7582 39.9657C60.7582 34.1369 56.0332 29.4118 50.2047 29.4118C44.3762 29.4118 39.6512 34.1369 39.6512 39.9657C39.6512 45.7944 44.3762 50.5195 50.2047 50.5195Z" fill="#FBBEBE"/>
<path d="M51.1751 56.221C51.1751 56.221 58.4534 56.585 60.7582 48.4573C60.7582 48.4573 67.9152 49.913 68.5217 53.3096C69.1282 56.7063 77.9835 122.698 75.0721 125.61C72.1608 128.521 42.5625 125.61 36.0121 125.61C29.4616 125.61 25.7012 126.944 25.7012 126.944L34.5564 85.5777L35.5268 57.3128L37.2251 49.7917C37.2251 49.7917 42.227 48.2889 42.8193 49.6468C43.4116 51.0048 45.1099 57.5554 51.1751 56.221Z" fill="#575A89"/>
<path d="M43.1521 48.4573C43.1521 48.4573 40.1364 47.2442 37.9529 48.4573C35.7694 49.6704 29.4616 49.1852 28.6125 50.5195C27.7633 51.8539 20.3637 59.3751 20.6064 60.3456C20.849 61.316 26.5503 81.8172 27.642 82.545C28.7338 83.2729 26.1864 125.974 22.9111 131.069C19.6359 136.163 19.0294 151.327 20.6064 153.511C22.1833 155.694 20.849 152.176 24.1242 150.842C27.3994 149.507 30.5533 141.501 30.5533 141.501C30.5533 141.501 32.6155 118.21 33.9499 113.115C35.2842 108.02 46.6869 89.9449 45.8377 78.4206C44.9886 66.8962 38.9234 55.3719 40.2577 53.7949C41.5921 52.2179 44.227 50.2769 43.1521 48.4573Z" fill="#2F2E41"/>
<path d="M58.878 48.154C58.878 48.154 63.7908 45.7885 66.8234 48.4573C69.856 51.1261 81.8652 55.3719 81.7439 58.0407C81.6226 60.7095 73.1313 80.8467 73.1313 80.8467C73.1313 80.8467 73.4952 97.466 75.1935 102.197C76.8917 106.928 87.8092 146.111 83.8061 148.901C79.803 151.691 74.9509 153.147 71.6757 153.753C68.4004 154.36 71.9183 147.324 72.2822 143.806C72.6461 140.288 77.1344 127.672 71.0691 120.151C65.0039 112.63 54.0865 89.8235 54.8143 77.3287C55.5421 64.8339 56.8765 60.9521 56.8765 60.9521C56.8765 60.9521 60.8189 49.0032 58.878 48.154Z" fill="#2F2E41"/>
<path d="M23.0325 59.6177H20.8962C20.8962 59.6177 19.0295 67.988 16.9673 69.2011C14.9051 70.4142 13.8134 72.1125 13.8134 73.0829C13.8134 74.0534 12.3577 75.3878 11.0233 76.7222C9.689 78.0566 6.89899 81.0893 7.26291 82.9089C7.62682 84.7286 7.0203 94.9185 10.1742 94.9185C13.3281 94.9185 19.8786 93.948 20.849 92.4923C21.8195 91.0366 28.3699 80.6041 28.3699 80.6041L23.0325 59.6177Z" fill="#2F2E41"/>
<path d="M41.5798 24.3434C39.828 25.9494 38.5681 28.0198 37.9467 30.3137C37.7066 31.2064 37.5943 32.2479 38.1627 32.977C38.3788 33.1892 38.566 33.4289 38.7194 33.69C38.8125 34.0786 38.8174 34.4831 38.7336 34.8738C38.7506 35.6187 38.9387 36.3498 39.2832 37.0104L41.1695 41.4084C41.3782 41.0248 41.3808 40.5537 41.5962 40.1737C42.014 39.4363 43.0137 39.329 43.861 39.308L46.5038 39.2425C47.2181 39.2796 47.9313 39.1494 48.5865 38.8624C49.355 38.4497 49.8169 37.6462 50.4343 37.0301C51.2165 36.2551 52.2462 35.7796 53.3435 35.6868C52.9693 36.2852 52.5085 36.8249 51.9761 37.2883C53.4802 37.1169 54.8605 36.373 55.8306 35.2109L55.8347 36.5094C56.2742 36.6837 56.6508 35.9921 57.1202 36.0479C57.6773 36.1142 57.5736 36.9329 57.546 37.4933C57.5404 37.9933 57.7255 38.4767 58.0636 38.8451C58.4018 39.2135 58.8676 39.4391 59.3663 39.4762C59.9442 36.863 60.5258 34.2006 60.295 31.5342C60.0642 28.8678 58.8901 26.1479 56.6405 24.6981C55.732 24.1403 54.7317 23.7483 53.6862 23.5403C51.5553 23.0699 49.3498 23.1025 47.1679 23.1374C45.9174 23.1032 44.6677 23.2324 43.4507 23.5217C42.2222 23.8204 41.1594 24.5877 40.4892 25.6597" fill="#3F3D56"/>
<path d="M59.6567 53.8228H29.0614C27.3717 53.8228 26.0019 55.1926 26.0019 56.8824V56.8824C26.0019 58.5722 27.3717 59.942 29.0614 59.942H59.6567C61.3464 59.942 62.7162 58.5722 62.7162 56.8824C62.7162 55.1926 61.3464 53.8228 59.6567 53.8228Z" fill="#D77F3F"/>
<path d="M30.0812 52.123H60.6765C62.3662 52.123 63.736 53.4928 63.736 55.1826V55.1826C63.736 56.8724 62.3662 58.2422 60.6765 58.2422H30.0812C28.3915 58.2422 27.0217 56.8724 27.0217 55.1826V55.1826C27.0217 53.4928 28.3915 52.123 30.0812 52.123Z" stroke="#F2F2F2" stroke-miterlimit="10"/>
<path d="M18.3016 71.9912C18.3016 71.9912 23.2751 66.2897 22.5473 64.47C21.8195 62.6504 24.1243 49.1851 28.3699 50.5195C32.6156 51.8539 30.796 65.3192 30.796 65.3192L24.2456 76.4796L20.849 75.2665L18.3016 71.9912Z" fill="#FBBEBE"/>
<path d="M19.7573 68.3519L10.4168 79.7549C10.4168 79.7549 5.92853 91.7645 11.9938 91.7645C18.059 91.7645 22.7899 83.8794 22.7899 83.8794L27.7634 71.8699C27.7634 71.8699 24.2455 76.8435 21.5768 74.1747C20.8084 73.4355 20.2388 72.5144 19.9207 71.4966C19.6027 70.4788 19.5465 69.3972 19.7573 68.3519Z" fill="#2F2E41"/>
<path d="M67.8486 129.536H51.9677C51.0962 129.536 50.3896 130.242 50.3896 131.114V134.077C50.3896 134.948 51.0962 135.655 51.9677 135.655H67.8486C68.7202 135.655 69.4267 134.948 69.4267 134.077V131.114C69.4267 130.242 68.7202 129.536 67.8486 129.536Z" fill="#57B894"/>
<path d="M69.5484 127.496H53.6675C52.7959 127.496 52.0894 128.202 52.0894 129.074V132.037C52.0894 132.908 52.7959 133.615 53.6675 133.615H69.5484C70.4199 133.615 71.1265 132.908 71.1265 132.037V129.074C71.1265 128.202 70.4199 127.496 69.5484 127.496Z" stroke="#F2F2F2" stroke-miterlimit="10"/>
<path d="M67.058 121.877C67.058 121.877 58.2108 134.344 63.6695 136.891C69.1282 139.439 76.0426 128.036 76.0426 128.036L67.058 121.877Z" fill="#FBBEBE"/>
<path d="M76.8917 56.2211L81.7439 58.0407C81.7439 58.0407 84.6552 72.4764 85.6257 75.8731C86.5961 79.2697 87.9304 108.141 84.6552 113.964C81.38 119.787 75.0721 131.554 75.0721 131.554C75.0721 131.554 69.2495 122.941 65.2465 123.547C65.2465 123.547 70.8265 118.695 71.6756 116.148C72.5247 113.6 75.0721 106.322 75.1934 102.197C75.3147 98.0726 74.7999 82.0099 71.9034 79.1841C69.0069 76.3583 76.8917 56.2211 76.8917 56.2211Z" fill="#2F2E41"/>
<path d="M0 244.803H99.5196" stroke="#3F3D56" stroke-miterlimit="10"/>
<path d="M315.51 181.09C315.51 204.283 330.06 223.051 348.04 223.051L315.51 181.09Z" fill="#46455B"/>
<path d="M348.041 223.051C348.041 199.597 364.277 180.618 384.343 180.618L348.041 223.051Z" fill="#D77F3F"/>
<path d="M327.296 183.192C327.296 205.223 336.574 223.051 348.04 223.051L327.296 183.192Z" fill="#D77F3F"/>
<path d="M348.041 223.051C348.041 193.082 366.808 168.831 390 168.831L348.041 223.051Z" fill="#46455B"/>
<path d="M341.197 223.346C341.197 223.346 345.81 223.204 347.201 222.214C348.591 221.224 354.297 220.042 354.642 221.63C354.987 223.218 361.575 229.527 356.367 229.569C351.158 229.611 344.264 228.758 342.877 227.913C341.489 227.067 341.197 223.346 341.197 223.346Z" fill="#A8A8A8"/>
<path opacity="0.2" d="M356.46 229.017C351.251 229.059 344.357 228.205 342.97 227.36C341.913 226.716 341.492 224.406 341.351 223.34C341.253 223.345 341.197 223.346 341.197 223.346C341.197 223.346 341.489 227.067 342.877 227.913C344.264 228.758 351.158 229.611 356.367 229.569C357.87 229.557 358.389 229.022 358.361 228.23C358.152 228.709 357.579 229.007 356.46 229.017Z" fill="black"/>
<path d="M315.276 229.659H384.507" stroke="#3F3D56" stroke-miterlimit="10"/>
</g>
<defs>
<clipPath id="clip0">
<rect width="390" height="245" fill="white"/>
</clipPath>
</defs>
</svg>
