<svg width="528" height="374" viewBox="0 0 528 374" fill="none" xmlns="http://www.w3.org/2000/svg">
<g clip-path="url(#clip0)">
<path d="M48.8886 334.506C75.7802 334.506 97.5802 332.968 97.5802 331.071C97.5802 329.175 75.7802 327.637 48.8886 327.637C21.997 327.637 0.197021 329.175 0.197021 331.071C0.197021 332.968 21.997 334.506 48.8886 334.506Z" fill="#D0CDE1"/>
<path d="M196.682 374C266.6 374 323.28 371.309 323.28 367.99C323.28 364.671 266.6 361.98 196.682 361.98C126.764 361.98 70.0837 364.671 70.0837 367.99C70.0837 371.309 126.764 374 196.682 374Z" fill="#D0CDE1"/>
<path d="M262.559 125.014L264.85 121.007L253.393 118.718L252.248 124.442L253.966 129.021L262.559 125.014Z" fill="#D67C43"/>
<path opacity="0.2" d="M262.559 125.014L264.85 121.007L253.393 118.718L252.248 124.442L253.966 129.021L262.559 125.014Z" fill="black"/>
<path d="M255.971 122.438C264.197 122.438 270.865 115.775 270.865 107.556C270.865 99.3369 264.197 92.6741 255.971 92.6741C247.745 92.6741 241.077 99.3369 241.077 107.556C241.077 115.775 247.745 122.438 255.971 122.438Z" fill="#FFB8B8"/>
<path d="M243.369 107.556L231.339 127.59L249.097 137.893L258.262 116.715L243.369 107.556Z" fill="#FFB8B8"/>
<path d="M242.223 131.024L226.756 124.728C226.756 124.728 203.27 128.734 200.978 136.175C198.687 143.616 198.687 203.716 198.687 203.716C198.687 203.716 192.958 218.598 200.978 219.171C200.978 219.171 198.687 222.605 200.978 223.177C203.27 223.75 226.756 223.177 235.922 226.039C245.087 228.901 263.418 231.191 263.418 228.329V223.177C263.418 223.177 267.428 219.171 265.137 212.302C262.845 205.433 259.981 190.551 259.981 190.551C259.981 190.551 277.166 152.774 275.448 148.195C273.729 143.616 252.748 129.457 252.748 129.457L242.223 131.024Z" fill="#D67C43"/>
<path d="M206.707 203.717L207.28 208.296L215.299 198.565H212.435L206.707 203.717Z" fill="#FFB8B8"/>
<path d="M242.223 131.024L225.61 127.017C225.61 127.017 222.173 124.155 222.173 120.721C222.173 117.287 227.329 112.135 230.766 108.701C231.065 108.394 231.424 108.152 231.819 107.987C232.215 107.823 232.64 107.741 233.069 107.745C236.471 107.716 240.596 112.175 240.596 112.175L236.019 119.805L235.813 120.143L242.223 131.024Z" fill="#D67C43"/>
<path d="M255.028 124.189L264.85 121.007C264.85 121.007 268.001 133.313 264.564 133.886C261.127 134.458 242.223 132.741 242.223 132.741L255.028 124.189Z" fill="#D67C43"/>
<path d="M202.124 220.315L194.677 262.672C194.677 262.672 191.813 267.823 192.958 270.113C194.104 272.402 194.677 272.402 192.958 273.547C191.24 274.692 188.948 273.547 189.521 276.409C189.865 278.106 190.056 279.83 190.094 281.56L174.055 336.509C174.055 336.509 163.743 341.088 171.19 343.95C178.637 346.812 186.084 349.101 187.803 346.24C189.521 343.378 187.803 339.943 187.803 339.943L214.154 276.981C214.154 276.981 218.163 271.257 218.163 267.823C218.163 264.389 231.339 239.776 231.339 239.776C231.339 239.776 231.912 264.389 232.485 266.106C233.057 267.823 231.339 271.257 231.339 273.547C231.339 275.837 230.193 275.837 231.339 276.981C232.485 278.126 232.485 291.291 232.485 291.291C232.485 291.291 225.61 342.233 229.62 342.805C233.63 343.378 245.087 342.233 245.087 339.943C245.087 337.654 243.369 337.081 243.369 337.081L250.815 293.58C250.815 293.58 250.243 290.718 251.388 288.429C252.534 286.139 252.534 286.139 252.534 284.995C252.534 283.85 251.961 283.277 252.534 282.705C252.908 282.211 253.109 281.608 253.107 280.988C253.107 280.988 251.961 277.554 252.534 276.981C253.107 276.409 265.709 233.48 261.699 228.329C257.69 223.177 202.124 220.315 202.124 220.315Z" fill="#2F2E41"/>
<path d="M230.193 341.088L226.183 350.246C226.183 350.246 217.018 360.549 223.892 362.839C230.766 365.128 233.057 364.556 233.057 364.556C233.057 364.556 235.922 365.128 235.922 366.273C235.922 367.418 258.835 376.003 260.554 368.562C262.272 361.121 242.796 347.384 242.796 347.384V340.516L230.193 341.088Z" fill="#2F2E41"/>
<path d="M186.007 345.327L186.875 355.286C186.875 355.286 192.26 367.977 185.014 367.949C177.768 367.921 175.781 366.646 175.781 366.646C175.781 366.646 172.884 366.273 172.517 367.358C172.151 368.442 147.692 369.253 148.446 361.654C149.2 354.055 172.051 347.265 172.051 347.265L174.25 340.757L186.007 345.327Z" fill="#2F2E41"/>
<path d="M241.464 111.63C242.384 111.568 242.998 110.566 243.252 109.613C243.507 108.66 243.572 107.615 244.092 106.796C245.516 104.551 249.219 105.458 250.722 103.274C251.647 101.931 251.454 99.7441 252.789 98.8895C253.632 98.3499 254.706 98.6278 255.635 98.9668C259.236 100.291 262.56 102.269 265.44 104.802L266.636 103.829L268.13 106.813C268.71 106.115 269.827 106.656 270.313 107.432C270.799 108.208 271.035 109.2 271.728 109.765C272.833 110.666 274.559 109.903 275.228 108.597C275.897 107.29 275.787 105.693 275.555 104.223C274.977 100.539 273.745 96.9874 271.918 93.7358L273.285 92.9163L271.518 92.6641L272.194 91.1308L270.343 91.1092L271.074 89.7985C268.585 90.6519 266.013 89.0889 263.636 87.9237C259.66 85.9747 255.188 85.0394 250.871 85.7634C248.659 86.1222 246.546 86.9375 244.667 88.1572C242.788 89.3769 241.184 90.9743 239.956 92.8476C238.074 95.8046 236.987 100.098 237.928 103.639C238.783 106.858 242.517 107.359 241.464 111.63Z" fill="#2F2E41"/>
<path d="M204.415 133.886C204.415 133.886 200.978 133.313 198.687 137.892C196.396 142.471 179.21 179.104 187.803 190.552C196.396 201.999 204.415 205.433 204.415 205.433L206.134 206.006L214.726 196.848L211.862 192.841C211.862 192.841 211.862 188.834 209.571 188.262C207.28 187.69 207.28 189.407 206.707 187.117C206.134 184.828 208.998 186.545 206.134 184.255C203.27 181.966 205.561 180.821 205.561 180.821L204.415 133.886Z" fill="#D67C43"/>
<path d="M265.137 210.299L264.564 214.878L256.544 205.147H259.408L265.137 210.299Z" fill="#FFB8B8"/>
<path d="M264.277 146.192C264.277 146.192 272.297 142.185 274.588 146.764C276.88 151.343 292.633 185.686 284.04 197.134C275.448 208.582 267.428 212.016 267.428 212.016L265.709 212.588L257.117 203.43L259.981 199.423C259.981 199.423 259.981 195.417 262.272 194.844C264.564 194.272 264.564 195.989 265.136 193.7C265.709 191.41 262.845 193.127 265.709 190.838C268.574 188.548 266.282 187.403 266.282 187.403L264.277 146.192Z" fill="#D67C43"/>
<path opacity="0.2" d="M209.857 156.495L203.556 181.68L211.003 190.838L207.566 179.39L209.857 156.495Z" fill="black"/>
<path opacity="0.2" d="M240.596 112.175L236.019 119.805C233.143 118.809 232.903 112.141 233.069 107.745C236.472 107.716 240.596 112.175 240.596 112.175Z" fill="black"/>
<path d="M143.272 352.402C143.372 362.587 137.347 366.202 129.872 366.275C129.699 366.276 129.526 366.276 129.354 366.274C129.008 366.27 128.665 366.257 128.325 366.237C121.575 365.825 116.297 362.138 116.204 352.666C116.108 342.863 128.526 330.371 129.457 329.447L129.459 329.446C129.494 329.411 129.512 329.393 129.512 329.393C129.512 329.393 143.173 342.218 143.272 352.402Z" fill="#D0CDE1"/>
<path d="M123.802 303.273C123.872 310.462 119.619 313.014 114.343 313.065C114.22 313.066 114.098 313.066 113.977 313.065C113.732 313.062 113.49 313.053 113.251 313.038C108.486 312.748 104.76 310.145 104.695 303.459C104.627 296.54 113.392 287.721 114.05 287.069L114.051 287.069C114.076 287.044 114.089 287.031 114.089 287.031C114.089 287.031 123.732 296.084 123.802 303.273Z" fill="#D0CDE1"/>
<path d="M114.193 314.478C133.175 314.478 148.563 313.392 148.563 312.054C148.563 310.715 133.175 309.629 114.193 309.629C95.2103 309.629 79.8221 310.715 79.8221 312.054C79.8221 313.392 95.2103 314.478 114.193 314.478Z" fill="#D0CDE1"/>
<path d="M528 160.159H300.724V275.78H528V160.159Z" fill="#3F3D56"/>
<path d="M364.972 199.091H341.955V201.008H364.972V199.091Z" fill="#D67C43"/>
<path d="M395.661 199.091H372.644V201.008H395.661V199.091Z" fill="#D67C43"/>
<path d="M440.256 216.819H417.239V218.735H440.256V216.819Z" fill="#D67C43"/>
<path d="M471.424 216.819H448.407V218.735H471.424V216.819Z" fill="#D67C43"/>
<path d="M471.424 199.091H403.813V201.008H471.424V199.091Z" fill="#D67C43"/>
<path d="M409.567 216.819H341.955V218.735H409.567V216.819Z" fill="#D67C43"/>
<path d="M409.567 234.547H341.955V236.463H409.567V234.547Z" fill="#D67C43"/>
<path d="M471.424 234.547H424.432V236.463H471.424V234.547Z" fill="#D67C43"/>
<path d="M335.486 207.182L327.388 199.091L335.486 191L337.106 192.619L330.628 199.091L337.106 205.563L335.486 207.182Z" fill="#D67C43"/>
<path d="M493.238 244.554L491.618 242.936L498.095 236.462L491.618 229.991L493.238 228.372L501.335 236.462L493.238 244.554Z" fill="#D67C43"/>
<path d="M484.713 227.986L479.917 243.797L482.11 244.461L486.906 228.65L484.713 227.986Z" fill="#D67C43"/>
<path d="M53.1661 315.773L95.5953 252.727L53.2529 322.555L53.3414 329.649C50.2439 329.673 47.1765 329.621 44.1392 329.495L46.2436 238.303L46.1859 237.599L46.2636 237.464L46.465 228.846L0 161.439L46.4102 222.397L46.5749 224.218L48.1644 155.319L8.03113 85.4333L48.2787 143.216L47.8586 0.475078L47.8595 0L47.8731 0.46724L50.5373 112.966L87.1139 67.2691L50.657 122.658L51.4553 184.286L85.1133 124.139L51.579 193.347L52.0234 227.615L100.971 143.831L52.1722 239.57L53.1661 315.773Z" fill="#D0CDE1"/>
</g>
<defs>
<clipPath id="clip0">
<rect width="528" height="374" fill="white"/>
</clipPath>
</defs>
</svg>
