<svg width="360" height="333" viewBox="0 0 360 333" fill="none" xmlns="http://www.w3.org/2000/svg">
<g clip-path="url(#clip0)">
<g opacity="0.5">
<path opacity="0.5" d="M257.639 55.6667H65.9074V313.287H257.639V55.6667Z" fill="url(#paint0_linear)"/>
</g>
<path d="M254.146 59.1638H68.4043V307.798H254.146V59.1638Z" fill="#F2F2F2"/>
<path d="M146.796 69.6465H82.8855V71.643H146.796V69.6465Z" fill="#E0E0E0"/>
<path opacity="0.7" d="M146.796 78.6328H82.8855V80.6293H146.796V78.6328Z" fill="#D77F3F"/>
<path d="M220.194 69.6465H156.284V71.643H220.194V69.6465Z" fill="#E0E0E0"/>
<path d="M230.178 126.566H166.267V128.562H230.178V126.566Z" fill="#E0E0E0"/>
<path d="M231.678 132.055H167.768V134.052H231.678V132.055Z" fill="#E0E0E0"/>
<path d="M234.676 137.549H170.765V139.545H234.676V137.549Z" fill="#E0E0E0"/>
<path d="M230.178 214.933H166.267V216.93H230.178V214.933Z" fill="#E0E0E0"/>
<path d="M231.678 220.427H167.768V222.423H231.678V220.427Z" fill="#E0E0E0"/>
<path d="M234.676 225.916H170.765V227.913H234.676V225.916Z" fill="#E0E0E0"/>
<g opacity="0.5">
<path opacity="0.5" d="M151.29 106.092H83.3857V174.99H151.29V106.092Z" fill="url(#paint1_linear)"/>
</g>
<path d="M150.648 107.593H83.8133V173.494H150.648V107.593Z" fill="#F5F5F5"/>
<g opacity="0.5">
<path opacity="0.5" d="M148.506 111.586H86.1691V154.521H148.506V111.586Z" fill="url(#paint2_linear)"/>
</g>
<path d="M148.075 112.086H86.5967V153.525H148.075V112.086Z" fill="white"/>
<path opacity="0.4" d="M81.3848 152.029L96.8665 128.062L103.357 138.545L117.338 124.069L129.322 138.545L139.806 117.079L166.767 160.015L79.3881 157.018L81.3848 152.029Z" fill="#D77F3F"/>
<path opacity="0.4" d="M93.3691 122.569C95.8509 122.569 97.8627 120.557 97.8627 118.075C97.8627 115.594 95.8509 113.582 93.3691 113.582C90.8874 113.582 88.8755 115.594 88.8755 118.075C88.8755 120.557 90.8874 122.569 93.3691 122.569Z" fill="#D77F3F"/>
<g opacity="0.5">
<path opacity="0.5" d="M151.29 194.464H83.3857V263.362H151.29V194.464Z" fill="url(#paint3_linear)"/>
</g>
<path d="M150.648 195.96H83.8133V261.862H150.648V195.96Z" fill="#F5F5F5"/>
<g opacity="0.5">
<path opacity="0.5" d="M148.506 199.957H86.1691V242.893H148.506V199.957Z" fill="url(#paint4_linear)"/>
</g>
<path d="M148.075 200.453H86.5967V241.892H148.075V200.453Z" fill="white"/>
<path opacity="0.4" d="M81.3848 240.396L96.8665 216.429L103.357 226.916L117.338 212.436L129.322 226.916L139.806 205.447L166.767 248.382L79.3881 245.389L81.3848 240.396Z" fill="#BDBDBD"/>
<path opacity="0.4" d="M93.3691 210.94C95.8509 210.94 97.8627 208.929 97.8627 206.447C97.8627 203.965 95.8509 201.954 93.3691 201.954C90.8874 201.954 88.8755 203.965 88.8755 206.447C88.8755 208.929 90.8874 210.94 93.3691 210.94Z" fill="#BDBDBD"/>
<g opacity="0.5">
<path opacity="0.5" d="M144.275 42.9382L94.0556 295.617L282.11 332.986L332.33 80.3071L144.275 42.9382Z" fill="url(#paint5_linear)"/>
</g>
<path d="M146.042 46.8536L97.5736 290.719L279.753 326.92L328.221 83.055L146.042 46.8536Z" fill="white"/>
<path d="M286.339 86.4319L157.049 60.7401L156.659 62.6983L285.95 88.3901L286.339 86.4319Z" fill="#E0E0E0"/>
<path d="M249.551 271.538L120.26 245.846L119.871 247.804L249.162 273.496L249.551 271.538Z" fill="#E0E0E0"/>
<path d="M217.924 276.957L118.018 257.104L117.629 259.063L217.535 278.915L217.924 276.957Z" fill="#E0E0E0"/>
<path opacity="0.7" d="M152.998 275.767L115.78 268.371L115.391 270.329L152.609 277.725L152.998 275.767Z" fill="#D77F3F"/>
<path opacity="0.7" d="M219.449 84.8506L154.806 72.0052L154.417 73.9634L219.06 86.8088L219.449 84.8506Z" fill="#D77F3F"/>
<path d="M269.128 106.428L152.573 83.2668L152.184 85.2249L268.739 108.386L269.128 106.428Z" fill="#E0E0E0"/>
<path opacity="0.7" d="M178.735 100.176L150.332 94.5317L149.943 96.4899L178.346 102.134L178.735 100.176Z" fill="#3AD29F"/>
<path d="M277.387 131.486L148.096 105.795L147.707 107.753L276.997 133.445L277.387 131.486Z" fill="#E0E0E0"/>
<g opacity="0.5">
<path opacity="0.5" d="M159.487 153.369L146.252 219.964L262.316 243.028L275.552 176.432L159.487 153.369Z" fill="url(#paint6_linear)"/>
</g>
<path d="M274.741 176.776L160.145 154.004L147.201 219.132L261.797 241.904L274.741 176.776Z" fill="white"/>
<path d="M275.148 142.753L145.858 117.061L145.468 119.019L274.759 144.711L275.148 142.753Z" fill="#E0E0E0"/>
<path d="M184.598 168.025L170.394 165.203L160.954 212.703L175.157 215.525L184.598 168.025Z" fill="#D77F3F"/>
<path d="M206.948 188.757L192.745 185.934L186.419 217.764L200.622 220.587L206.948 188.757Z" fill="#3AD29F"/>
<path d="M229.498 208.509L215.295 205.686L211.889 222.824L226.092 225.646L229.498 208.509Z" fill="#F55F44"/>
<path d="M258.468 195.94L244.265 193.117L237.354 227.887L251.558 230.709L258.468 195.94Z" fill="#FDD835"/>
<path d="M299.907 149.635C293.747 143.228 286.367 138.118 278.202 134.605C270.037 131.093 261.251 129.249 252.363 129.182C243.475 129.115 234.663 130.826 226.445 134.215C218.228 137.605 210.772 142.603 204.516 148.916C179.29 174.345 178.863 215.75 203.537 241.717C214.376 253.125 228.904 260.33 244.546 262.057C260.189 263.783 275.938 259.918 289.005 251.148L337.186 301.257C337.782 301.877 338.601 302.235 339.461 302.252C340.321 302.269 341.153 301.943 341.773 301.347L353.779 289.804C354.399 289.207 354.757 288.389 354.774 287.529C354.791 286.669 354.465 285.837 353.869 285.217L305.701 235.112C314.937 222.456 319.418 206.951 318.359 191.319C317.299 175.688 310.767 160.929 299.907 149.635ZM284.9 230.2C278.103 236.734 269.521 241.105 260.24 242.762C250.958 244.419 241.393 243.287 232.755 239.508C224.117 235.73 216.793 229.475 211.71 221.534C206.627 213.594 204.013 204.325 204.198 194.899C204.384 185.473 207.36 176.314 212.751 168.58C218.143 160.845 225.707 154.883 234.487 151.447C243.267 148.011 252.868 147.255 262.078 149.276C271.287 151.296 279.691 156.002 286.226 162.798C290.565 167.31 293.973 172.633 296.255 178.463C298.536 184.292 299.647 190.514 299.524 196.773C299.401 203.032 298.046 209.206 295.537 214.941C293.028 220.676 289.414 225.861 284.9 230.2Z" fill="url(#paint7_linear)"/>
<path d="M216.552 182.575C211.19 182.575 211.181 190.907 216.552 190.907C221.922 190.907 221.922 182.575 216.552 182.575Z" fill="url(#paint8_linear)"/>
<path d="M253.924 155.885C239.494 155.56 226.364 162.798 219.382 173.725C217.103 177.29 223.572 180.441 225.838 176.893C231.619 167.847 242.602 162.101 254.484 162.4C266.934 162.712 278.265 169.835 284.263 179.719C286.538 183.468 292.502 180.061 290.249 176.333C282.955 164.362 268.829 156.24 253.924 155.885Z" fill="url(#paint9_linear)"/>
<path d="M305.136 147.104C298.976 140.697 291.596 135.587 283.431 132.074C275.266 128.562 266.48 126.718 257.592 126.651C248.704 126.584 239.891 128.295 231.674 131.684C223.457 135.074 216.001 140.072 209.745 146.385C184.519 171.814 184.092 213.219 208.766 239.186C219.606 250.594 234.134 257.798 249.776 259.523C265.419 261.249 281.167 257.384 294.234 248.613L342.41 298.726C343.007 299.346 343.825 299.704 344.686 299.721C345.546 299.738 346.378 299.412 346.998 298.816L359.004 287.273C359.624 286.677 359.982 285.858 359.999 284.998C360.015 284.138 359.69 283.306 359.094 282.686L310.913 232.577C320.15 219.923 324.633 204.42 323.577 188.789C322.521 173.159 315.992 158.4 305.136 147.104ZM290.129 227.635C283.332 234.168 274.75 238.54 265.468 240.197C256.187 241.854 246.622 240.722 237.984 236.943C229.346 233.165 222.022 226.91 216.939 218.969C211.856 211.029 209.242 201.76 209.427 192.334C209.613 182.908 212.589 173.749 217.98 166.014C223.372 158.28 230.935 152.318 239.715 148.882C248.496 145.446 258.097 144.69 267.307 146.711C276.516 148.731 284.92 153.437 291.455 160.233C295.794 164.745 299.202 170.068 301.483 175.898C303.765 181.727 304.876 187.949 304.753 194.208C304.63 200.467 303.275 206.64 300.766 212.376C298.257 218.111 294.643 223.296 290.129 227.635Z" fill="#D77F3F"/>
<path d="M221.78 180.039C216.419 180.039 216.41 188.372 221.78 188.372C227.151 188.372 227.151 180.039 221.78 180.039Z" fill="#D77F3F"/>
<path d="M259.153 153.354C244.723 153.029 231.593 160.267 224.611 171.194C222.332 174.76 228.801 177.91 231.067 174.362C236.848 165.316 247.831 159.57 259.713 159.869C272.163 160.181 283.494 167.304 289.492 177.188C291.767 180.937 297.731 177.53 295.478 173.802C288.171 161.797 274.062 153.675 259.153 153.354Z" fill="#D77F3F"/>
<path d="M53.4228 283.832H51.9264V292.318H53.4228V283.832Z" fill="#47E6B1"/>
<path d="M56.9202 288.821V287.324H48.4333V288.821H56.9202Z" fill="#47E6B1"/>
<path d="M244.505 3.39875C244.092 3.21897 243.759 2.89342 243.571 2.4842C243.382 2.07498 243.351 1.61072 243.483 1.17994C243.504 1.11331 243.517 1.04442 243.522 0.974736C243.535 0.776614 243.484 0.579432 243.376 0.412703C243.268 0.245974 243.109 0.118667 242.923 0.0498362C242.737 -0.0189942 242.533 -0.0256457 242.343 0.0308777C242.152 0.0874011 241.985 0.204059 241.867 0.36339C241.826 0.419005 241.791 0.479273 241.764 0.542947C241.585 0.956048 241.259 1.28852 240.85 1.47697C240.44 1.66542 239.976 1.69665 239.545 1.56471C239.479 1.54379 239.41 1.53087 239.34 1.52623C239.14 1.51182 238.942 1.56296 238.774 1.6719C238.606 1.78083 238.478 1.9416 238.41 2.12978C238.341 2.31796 238.337 2.52325 238.396 2.71448C238.455 2.90571 238.575 3.07241 238.737 3.18926C238.793 3.2304 238.853 3.26484 238.917 3.29187C239.33 3.47165 239.662 3.79719 239.851 4.20641C240.039 4.61563 240.071 5.0799 239.939 5.51067C239.918 5.57731 239.905 5.64619 239.9 5.71588C239.884 5.91668 239.935 6.11718 240.044 6.28653C240.153 6.45588 240.315 6.5847 240.504 6.65319C240.693 6.72168 240.9 6.72604 241.092 6.6656C241.285 6.60516 241.452 6.48327 241.568 6.31867C241.609 6.26306 241.643 6.20279 241.67 6.13912C241.85 5.72602 242.176 5.39354 242.585 5.20509C242.994 5.01665 243.458 4.98542 243.889 5.11736C243.956 5.13828 244.025 5.15119 244.094 5.15583C244.293 5.16938 244.49 5.11841 244.657 5.01053C244.823 4.90265 244.951 4.74368 245.019 4.5574C245.088 4.37113 245.095 4.16757 245.038 3.9772C244.982 3.78683 244.865 3.61988 244.706 3.50135C244.644 3.45868 244.576 3.42419 244.505 3.39875Z" fill="#4D8AF0"/>
<path d="M58.763 66.3076C58.3498 66.1278 58.0173 65.8023 57.8289 65.393C57.6404 64.9838 57.6092 64.5196 57.7411 64.0888C57.762 64.0221 57.775 63.9533 57.7796 63.8836C57.7931 63.6855 57.7422 63.4883 57.6343 63.3215C57.5264 63.1548 57.3674 63.0275 57.1811 62.9587C56.9948 62.8898 56.7912 62.8832 56.6009 62.9397C56.4105 62.9962 56.2435 63.1129 56.125 63.2722C56.0838 63.3278 56.0494 63.3881 56.0223 63.4518C55.8425 63.8649 55.517 64.1974 55.1077 64.3858C54.6985 64.5743 54.2342 64.6055 53.8033 64.4736C53.7367 64.4526 53.6678 64.4397 53.5981 64.4351C53.4 64.4215 53.2028 64.4725 53.036 64.5804C52.8693 64.6883 52.742 64.8472 52.6731 65.0335C52.6043 65.2198 52.5976 65.4233 52.6542 65.6137C52.7107 65.8041 52.8274 65.971 52.9867 66.0896C53.0423 66.1307 53.1026 66.1651 53.1663 66.1922C53.5794 66.3719 53.9119 66.6975 54.1004 67.1067C54.2889 67.5159 54.3201 67.9802 54.1881 68.411C54.1672 68.4776 54.1543 68.5465 54.1497 68.6162C54.1361 68.8143 54.1871 69.0115 54.295 69.1782C54.4029 69.3449 54.5619 69.4722 54.7482 69.5411C54.9344 69.6099 55.138 69.6165 55.3284 69.56C55.5188 69.5035 55.6857 69.3868 55.8043 69.2275C55.8454 69.1719 55.8799 69.1116 55.9069 69.048C56.0867 68.6349 56.4123 68.3024 56.8215 68.1139C57.2308 67.9255 57.6951 67.8943 58.1259 68.0262C58.1926 68.0471 58.2614 68.06 58.3311 68.0647C58.5293 68.0782 58.7265 68.0272 58.8932 67.9194C59.06 67.8115 59.1873 67.6525 59.2561 67.4662C59.325 67.28 59.3316 67.0764 59.2751 66.886C59.2186 66.6957 59.1019 66.5287 58.9425 66.4102C58.8869 66.3691 58.8266 66.3346 58.763 66.3076Z" fill="#FDD835"/>
<path d="M322.897 325.92C322.484 325.741 322.151 325.415 321.963 325.006C321.774 324.597 321.743 324.132 321.875 323.702C321.896 323.635 321.909 323.566 321.914 323.496C321.927 323.298 321.876 323.101 321.768 322.934C321.66 322.768 321.501 322.64 321.315 322.572C321.129 322.503 320.925 322.496 320.735 322.553C320.544 322.609 320.377 322.726 320.259 322.885C320.218 322.941 320.183 323.001 320.156 323.065C319.977 323.478 319.651 323.81 319.242 323.999C318.832 324.187 318.368 324.218 317.937 324.086C317.871 324.065 317.802 324.053 317.732 324.048C317.534 324.034 317.337 324.085 317.17 324.193C317.003 324.301 316.876 324.46 316.807 324.646C316.738 324.833 316.732 325.036 316.788 325.227C316.845 325.417 316.961 325.584 317.121 325.702C317.176 325.744 317.237 325.778 317.3 325.805C317.713 325.985 318.046 326.31 318.234 326.72C318.423 327.129 318.454 327.593 318.322 328.024C318.301 328.09 318.288 328.159 318.284 328.229C318.27 328.427 318.321 328.624 318.429 328.791C318.537 328.958 318.696 329.085 318.882 329.154C319.068 329.223 319.272 329.229 319.462 329.173C319.653 329.116 319.82 329 319.938 328.84C319.979 328.785 320.014 328.724 320.041 328.661C320.221 328.248 320.546 327.915 320.955 327.727C321.365 327.538 321.829 327.507 322.26 327.639C322.326 327.66 322.395 327.673 322.465 327.677C322.663 327.691 322.86 327.64 323.027 327.532C323.194 327.424 323.321 327.265 323.39 327.079C323.459 326.893 323.466 326.689 323.409 326.499C323.353 326.308 323.236 326.142 323.076 326.023C323.021 325.982 322.961 325.947 322.897 325.92Z" fill="#FDD835"/>
<path d="M137.309 35.2016C138.964 35.2016 140.306 33.8598 140.306 32.2047C140.306 30.5496 138.964 29.2078 137.309 29.2078C135.654 29.2078 134.312 30.5496 134.312 32.2047C134.312 33.8598 135.654 35.2016 137.309 35.2016Z" fill="#F55F44"/>
<path d="M352.009 72.6433C353.664 72.6433 355.006 71.3016 355.006 69.6465C355.006 67.9913 353.664 66.6496 352.009 66.6496C350.354 66.6496 349.012 67.9913 349.012 69.6465C349.012 71.3016 350.354 72.6433 352.009 72.6433Z" fill="#F55F44"/>
<path d="M335.035 162.011C336.69 162.011 338.032 160.669 338.032 159.014C338.032 157.359 336.69 156.017 335.035 156.017C333.38 156.017 332.038 157.359 332.038 159.014C332.038 160.669 333.38 162.011 335.035 162.011Z" fill="#4D8AF0"/>
<path opacity="0.5" d="M2.99715 15.2281C4.65243 15.2281 5.9943 13.8863 5.9943 12.2312C5.9943 10.5761 4.65243 9.23431 2.99715 9.23431C1.34187 9.23431 0 10.5761 0 12.2312C0 13.8863 1.34187 15.2281 2.99715 15.2281Z" fill="#47E6B1"/>
</g>
<defs>
<linearGradient id="paint0_linear" x1="161.773" y1="313.287" x2="161.773" y2="55.6667" gradientUnits="userSpaceOnUse">
<stop stop-color="#808080" stop-opacity="0.25"/>
<stop offset="0.54" stop-color="#808080" stop-opacity="0.12"/>
<stop offset="1" stop-color="#808080" stop-opacity="0.1"/>
</linearGradient>
<linearGradient id="paint1_linear" x1="18719" y1="28307.6" x2="18719" y2="17203.9" gradientUnits="userSpaceOnUse">
<stop stop-color="#808080" stop-opacity="0.25"/>
<stop offset="0.54" stop-color="#808080" stop-opacity="0.12"/>
<stop offset="1" stop-color="#808080" stop-opacity="0.1"/>
</linearGradient>
<linearGradient id="paint2_linear" x1="17194" y1="15630.1" x2="17194" y2="11318.1" gradientUnits="userSpaceOnUse">
<stop stop-color="#808080" stop-opacity="0.25"/>
<stop offset="0.54" stop-color="#808080" stop-opacity="0.12"/>
<stop offset="1" stop-color="#808080" stop-opacity="0.1"/>
</linearGradient>
<linearGradient id="paint3_linear" x1="18719" y1="42637.9" x2="18719" y2="31534.2" gradientUnits="userSpaceOnUse">
<stop stop-color="#808080" stop-opacity="0.25"/>
<stop offset="0.54" stop-color="#808080" stop-opacity="0.12"/>
<stop offset="1" stop-color="#808080" stop-opacity="0.1"/>
</linearGradient>
<linearGradient id="paint4_linear" x1="17194" y1="24593.7" x2="17194" y2="20281.7" gradientUnits="userSpaceOnUse">
<stop stop-color="#808080" stop-opacity="0.25"/>
<stop offset="0.54" stop-color="#808080" stop-opacity="0.12"/>
<stop offset="1" stop-color="#808080" stop-opacity="0.1"/>
</linearGradient>
<linearGradient id="paint5_linear" x1="145527" y1="178680" x2="168044" y2="65367.3" gradientUnits="userSpaceOnUse">
<stop stop-color="#808080" stop-opacity="0.25"/>
<stop offset="0.54" stop-color="#808080" stop-opacity="0.12"/>
<stop offset="1" stop-color="#808080" stop-opacity="0.1"/>
</linearGradient>
<linearGradient id="paint6_linear" x1="32900.9" y1="75230.2" x2="36563.5" y2="56798.4" gradientUnits="userSpaceOnUse">
<stop stop-color="#808080" stop-opacity="0.25"/>
<stop offset="0.54" stop-color="#808080" stop-opacity="0.12"/>
<stop offset="1" stop-color="#808080" stop-opacity="0.1"/>
</linearGradient>
<linearGradient id="paint7_linear" x1="270.043" y1="302.253" x2="270.043" y2="129.182" gradientUnits="userSpaceOnUse">
<stop stop-color="#B3B3B3" stop-opacity="0.25"/>
<stop offset="0.54" stop-color="#B3B3B3" stop-opacity="0.1"/>
<stop offset="1" stop-color="#B3B3B3" stop-opacity="0.05"/>
</linearGradient>
<linearGradient id="paint8_linear" x1="216.552" y1="190.903" x2="216.552" y2="182.575" gradientUnits="userSpaceOnUse">
<stop stop-opacity="0.12"/>
<stop offset="0.55" stop-opacity="0.09"/>
<stop offset="1" stop-opacity="0.02"/>
</linearGradient>
<linearGradient id="paint9_linear" x1="55898.7" y1="12502.9" x2="55898.7" y2="10985.3" gradientUnits="userSpaceOnUse">
<stop stop-opacity="0.12"/>
<stop offset="0.55" stop-opacity="0.09"/>
<stop offset="1" stop-opacity="0.02"/>
</linearGradient>
<clipPath id="clip0">
<rect width="360" height="333" fill="white"/>
</clipPath>
</defs>
</svg>
