<svg width="439" height="509" viewBox="0 0 439 509" fill="none" xmlns="http://www.w3.org/2000/svg">
<g clip-path="url(#clip0)">
<path d="M263.541 509C300.575 509 330.597 502.649 330.597 494.814C330.597 486.979 300.575 480.627 263.541 480.627C226.507 480.627 196.485 486.979 196.485 494.814C196.485 502.649 226.507 509 263.541 509Z" fill="#E6E6E6"/>
<path d="M393.835 0H303.503L258.337 78.2034L303.503 156.408H393.835L439 78.2034L393.835 0Z" fill="#E6E6E6"/>
<path d="M308.573 147.629H388.765L428.861 78.2037L388.765 8.77795H308.573L268.477 78.2037L308.573 147.629Z" fill="white"/>
<path d="M307.604 61.1914C309.647 61.1914 311.304 59.5356 311.304 57.4931C311.304 55.4506 309.647 53.7948 307.604 53.7948C305.561 53.7948 303.905 55.4506 303.905 57.4931C303.905 59.5356 305.561 61.1914 307.604 61.1914Z" fill="#E2E2E2"/>
<path d="M307.604 81.902C309.647 81.902 311.304 80.2462 311.304 78.2037C311.304 76.1612 309.647 74.5054 307.604 74.5054C305.561 74.5054 303.905 76.1612 303.905 78.2037C303.905 80.2462 305.561 81.902 307.604 81.902Z" fill="#E2E2E2"/>
<path d="M307.604 102.612C309.647 102.612 311.304 100.957 311.304 98.9141C311.304 96.8716 309.647 95.2158 307.604 95.2158C305.561 95.2158 303.905 96.8716 303.905 98.9141C303.905 100.957 305.561 102.612 307.604 102.612Z" fill="#E2E2E2"/>
<path d="M393.433 54.5345H323.142V60.4518H393.433V54.5345Z" fill="#E2E2E2"/>
<path d="M393.433 75.245H323.142V81.1623H393.433V75.245Z" fill="#E2E2E2"/>
<path d="M393.433 95.9556H323.142V101.873H393.433V95.9556Z" fill="#E2E2E2"/>
<path d="M167.999 0.759521H78.5444L33.8176 78.2035L78.5444 155.648H167.999L212.726 78.2035L167.999 0.759521Z" fill="#E6E6E6"/>
<path d="M83.5651 146.955H162.978L202.685 78.2036L162.978 9.45215H83.5651L43.8584 78.2036L83.5651 146.955Z" fill="white"/>
<path d="M82.6059 61.3566C84.6293 61.3566 86.2695 59.7169 86.2695 57.6943C86.2695 55.6716 84.6293 54.0319 82.6059 54.0319C80.5826 54.0319 78.9424 55.6716 78.9424 57.6943C78.9424 59.7169 80.5826 61.3566 82.6059 61.3566Z" fill="url(#paint0_linear)"/>
<path d="M82.6059 81.866C84.6293 81.866 86.2695 80.2263 86.2695 78.2037C86.2695 76.181 84.6293 74.5413 82.6059 74.5413C80.5826 74.5413 78.9424 76.181 78.9424 78.2037C78.9424 80.2263 80.5826 81.866 82.6059 81.866Z" fill="url(#paint1_linear)"/>
<path d="M82.6059 102.375C84.6293 102.375 86.2695 100.736 86.2695 98.713C86.2695 96.6903 84.6293 95.0506 82.6059 95.0506C80.5826 95.0506 78.9424 96.6903 78.9424 98.713C78.9424 100.736 80.5826 102.375 82.6059 102.375Z" fill="url(#paint2_linear)"/>
<path d="M167.601 54.7644H97.993V60.6242H167.601V54.7644Z" fill="url(#paint3_linear)"/>
<path d="M167.601 75.2737H97.993V81.1335H167.601V75.2737Z" fill="url(#paint4_linear)"/>
<path d="M167.601 95.7831H97.993V101.643H167.601V95.7831Z" fill="url(#paint5_linear)"/>
<path d="M249.297 136.253C249.297 136.253 256.623 163.576 262.849 165.392C269.075 167.208 229.639 172.878 229.639 172.878L228.769 148.392L249.297 136.253Z" fill="#A0616A"/>
<path d="M217.09 306.693L224.383 322.316L232.718 313.984L227.508 301.485L217.09 306.693Z" fill="#A0616A"/>
<path d="M307.733 297.319L305.648 311.901L299.397 307.735V292.112L307.733 297.319Z" fill="#A0616A"/>
<path d="M218.132 454.589L215.007 479.586L231.676 480.627L229.593 454.589H218.132Z" fill="#A0616A"/>
<path d="M309.816 454.589L312.942 479.586L296.272 480.627L298.356 454.589H309.816Z" fill="#A0616A"/>
<path d="M225.425 298.361C225.425 298.361 218.132 318.15 219.174 326.482C220.216 334.814 210.839 377.517 213.965 381.683C217.09 385.849 217.09 391.056 215.007 394.181C212.923 397.306 211.881 393.139 212.923 398.347C213.965 403.555 211.881 429.593 212.923 433.759C213.965 437.925 209.797 438.966 211.881 443.132C213.965 447.299 217.09 459.797 217.09 459.797L230.634 458.755L232.718 447.299C232.718 447.299 238.969 446.257 237.927 440.008C236.886 433.759 243.137 392.098 243.137 392.098L260.848 333.773L285.853 386.89C285.853 386.89 286.895 424.385 290.021 428.551C293.146 432.717 286.895 444.174 290.021 448.34C293.146 452.506 296.272 459.797 296.272 459.797H311.9V451.465C311.9 451.465 321.277 446.257 311.9 430.634L309.816 341.063L303.565 298.361H225.425Z" fill="#2F2E41"/>
<path d="M233.76 476.461C233.76 476.461 226.467 473.337 223.341 475.42C220.216 477.503 218.132 474.378 218.132 474.378C218.132 474.378 213.965 472.295 212.923 475.42C212.122 477.615 211.073 479.711 209.797 481.669C209.797 481.669 203.546 493.126 207.713 496.25C211.881 499.375 215.007 501.458 215.007 503.541C215.007 505.624 234.802 506.665 234.802 503.541C234.802 500.416 233.76 476.461 233.76 476.461Z" fill="#2F2E41"/>
<path d="M294.188 476.461C294.188 476.461 301.481 473.337 304.607 475.42C307.732 477.503 309.816 474.378 309.816 474.378C309.816 474.378 313.984 472.295 315.025 475.42C315.826 477.615 316.875 479.711 318.151 481.669C318.151 481.669 324.402 493.126 320.235 496.25C316.067 499.375 312.942 501.458 312.942 503.541C312.942 505.624 293.146 506.665 293.146 503.541C293.146 500.416 294.188 476.461 294.188 476.461Z" fill="#2F2E41"/>
<path d="M287.416 170.774C287.416 170.774 258.244 159.318 242.616 163.484C226.988 167.65 200.941 186.397 201.983 190.563C203.025 194.729 212.923 243.16 212.923 243.16C212.923 243.16 212.923 272.323 218.132 281.696C223.341 291.07 224.383 298.361 224.383 298.361L223.341 308.776C223.341 308.776 250.43 310.859 265.016 304.61C279.602 298.361 303.565 302.527 303.565 302.527C303.565 302.527 291.062 250.451 284.811 242.119C278.56 233.786 287.416 170.774 287.416 170.774Z" fill="#575A89"/>
<path d="M210.839 187.959L201.462 191.084C201.462 191.084 193.127 203.582 193.127 211.914C193.127 220.247 192.086 272.323 196.253 279.613C200.42 286.904 204.588 301.485 210.839 302.527L218.132 311.901L230.634 303.568L226.467 294.195L210.839 187.959Z" fill="#575A89"/>
<path d="M273.351 172.337L283.715 169.427L287.937 171.295C287.937 171.295 303.565 186.918 308.774 202.541C313.983 218.164 315.025 278.572 315.025 278.572C315.025 278.572 316.067 281.697 315.025 282.738C313.983 283.78 312.942 284.821 312.942 286.904C312.942 288.987 310.858 293.153 310.858 293.153L309.816 301.485L299.397 300.444C299.397 300.444 279.602 242.119 279.602 228.579C279.602 215.039 273.351 172.337 273.351 172.337Z" fill="#575A89"/>
<path d="M270.445 165.46C270.445 165.46 270.746 160.359 267.621 159.318C264.495 158.276 260.328 153.069 251.993 155.152C243.658 157.235 221.779 160.359 220.737 162.442C219.695 164.525 216.569 165.567 217.611 167.65C218.653 169.733 220.737 167.65 218.653 169.733C216.569 171.816 215.527 170.774 216.569 171.816C217.611 172.857 217.611 178.065 217.611 178.065C217.611 178.065 233.239 188.48 237.407 187.439C241.574 186.397 266.446 164.528 266.446 164.528L270.445 165.46Z" fill="#575A89"/>
<path opacity="0.2" d="M217.555 233.611L216.499 269.089L224.834 294.084L217.555 233.611Z" fill="black"/>
<path opacity="0.2" d="M289.46 218.111L298.887 252.33L296.709 278.589L289.46 218.111Z" fill="black"/>
<path d="M238.194 156.407C250.407 156.407 260.308 146.51 260.308 134.3C260.308 122.091 250.407 112.193 238.194 112.193C225.98 112.193 216.079 122.091 216.079 134.3C216.079 146.51 225.98 156.407 238.194 156.407Z" fill="#A0616A"/>
<path d="M219.375 132.775C220.935 136.761 222.496 140.746 224.056 144.732C225.975 149.632 228.172 154.874 232.669 157.608C238.221 160.984 245.635 159.338 251.006 155.681C260.592 149.153 265.467 136.407 262.682 125.151C259.898 113.894 249.642 104.889 238.117 103.581L237.895 107.583L232.982 103.466C231.676 106.097 227.544 106.681 225.559 104.516C226.849 107.19 225.36 110.451 223.209 112.499C220.567 115.016 213.009 118.04 213.323 122.538C213.532 125.54 218.157 129.664 219.375 132.775Z" fill="#2F2E41"/>
</g>
<defs>
<linearGradient id="paint0_linear" x1="78.9424" y1="78.6134" x2="167.601" y2="78.6134" gradientUnits="userSpaceOnUse">
<stop stop-color="#E6AD84"/>
<stop offset="0.614583" stop-color="#D77F3F"/>
<stop offset="1" stop-color="#D73F5B" stop-opacity="0.71"/>
</linearGradient>
<linearGradient id="paint1_linear" x1="78.9424" y1="78.6134" x2="167.601" y2="78.6134" gradientUnits="userSpaceOnUse">
<stop stop-color="#E6AD84"/>
<stop offset="0.614583" stop-color="#D77F3F"/>
<stop offset="1" stop-color="#D73F5B" stop-opacity="0.71"/>
</linearGradient>
<linearGradient id="paint2_linear" x1="78.9424" y1="78.6134" x2="167.601" y2="78.6134" gradientUnits="userSpaceOnUse">
<stop stop-color="#E6AD84"/>
<stop offset="0.614583" stop-color="#D77F3F"/>
<stop offset="1" stop-color="#D73F5B" stop-opacity="0.71"/>
</linearGradient>
<linearGradient id="paint3_linear" x1="78.9424" y1="78.6134" x2="167.601" y2="78.6134" gradientUnits="userSpaceOnUse">
<stop stop-color="#E6AD84"/>
<stop offset="0.614583" stop-color="#D77F3F"/>
<stop offset="1" stop-color="#D73F5B" stop-opacity="0.71"/>
</linearGradient>
<linearGradient id="paint4_linear" x1="78.9424" y1="78.6134" x2="167.601" y2="78.6134" gradientUnits="userSpaceOnUse">
<stop stop-color="#E6AD84"/>
<stop offset="0.614583" stop-color="#D77F3F"/>
<stop offset="1" stop-color="#D73F5B" stop-opacity="0.71"/>
</linearGradient>
<linearGradient id="paint5_linear" x1="78.9424" y1="78.6134" x2="167.601" y2="78.6134" gradientUnits="userSpaceOnUse">
<stop stop-color="#E6AD84"/>
<stop offset="0.614583" stop-color="#D77F3F"/>
<stop offset="1" stop-color="#D73F5B" stop-opacity="0.71"/>
</linearGradient>
<clipPath id="clip0">
<rect x="-189" width="628" height="509" fill="white"/>
</clipPath>
</defs>
</svg>
